<?xml version="1.0" encoding="UTF-8"?>
<!DOCTYPE svg PUBLIC "-//W3C//DTD SVG 1.1//EN" "http://www.w3.org/Graphics/SVG/1.1/DTD/svg11.dtd">
<!-- Creator: CorelDRAW 2021.5 -->
<svg xmlns="http://www.w3.org/2000/svg" xml:space="preserve" width="2.2019in" height="2.2019in" version="1.1" style="shape-rendering:geometricPrecision; text-rendering:geometricPrecision; image-rendering:optimizeQuality; fill-rule:evenodd; clip-rule:evenodd"
viewBox="0 0 1839.44 1839.44"
 xmlns:xlink="http://www.w3.org/1999/xlink"
 xmlns:xodm="http://www.corel.com/coreldraw/odm/2003">
 <defs>
  <style type="text/css">
   <![CDATA[
    .fil3 {fill:none}
    .fil0 {fill:#E6E7E8}
    .fil1 {fill:#7C67FF}
    .fil2 {fill:white;fill-rule:nonzero}
   ]]>
  </style>
 </defs>
 <g id="Layer_x0020_1">
  <metadata id="CorelCorpID_0Corel-Layer"/>
  <g id="_105553191972288">
   <g>
    <path class="fil0" d="M1603.7 1362.45l-116.05 183.33 -1251.92 234.15c0,-369.02 0,-738.04 0,-1107.06l116.05 -379.21 1251.92 1068.79z"/>
    <polygon class="fil1" points="351.78,293.65 1603.7,59.51 1603.7,1362.45 351.78,1596.59 "/>
    <path class="fil2" d="M1447.59 1018.8c-7.8,28.98 -21.54,55.92 -41.22,80.82 -19.68,24.9 -47.35,45.77 -83,62.59 -35.65,16.83 -79.84,30.32 -132.58,40.49l-425.59 82.04 -220.59 42.53 0 -838.6 557.05 -107.38c52.73,-10.17 97.49,-14.41 134.25,-12.74 36.76,1.67 66.1,9.76 88.01,24.25 21.91,14.49 37.69,33.35 47.35,56.58 9.66,23.23 14.48,52.36 14.48,87.4 0,75.66 -17.83,133.64 -53.48,173.96 15.6,1.77 30.27,6.31 44.01,13.62 13.74,7.3 27.29,18.23 40.66,32.77 13.37,14.55 23.77,35.44 31.19,62.68 15.61,57.22 14.82,141.87 -0.55,199zm-642.29 -347.45l0 80.04 293.01 -56.48c10.4,-2.01 19.13,-7.67 26.18,-16.99 7.06,-9.32 10.58,-19.56 10.58,-30.71 0,-11.15 -3.53,-19.83 -10.58,-26.03 -7.05,-6.21 -15.78,-8.31 -26.18,-6.3l-293.01 56.48zm381.03 300.45c11.14,-2.15 20.42,-7.92 27.85,-17.31 7.43,-9.4 11.14,-19.87 11.14,-31.42 0,-11.55 -3.71,-20.59 -11.14,-27.12 -7.43,-6.54 -16.71,-8.73 -27.85,-6.58l-381.03 73.45 0 82.43 381.03 -73.45z"/>
   </g>
   <rect class="fil3" x="-0" y="-0" width="1839.44" height="1839.44"/>
  </g>
 </g>
</svg>
