<?xml version="1.0" encoding="UTF-8"?>
<!DOCTYPE svg PUBLIC "-//W3C//DTD SVG 1.1//EN" "http://www.w3.org/Graphics/SVG/1.1/DTD/svg11.dtd">
<!-- Creator: CorelDRAW 2021.5 -->
<svg xmlns="http://www.w3.org/2000/svg" xml:space="preserve" width="6.12559in" height="2.93319in" version="1.1" style="shape-rendering:geometricPrecision; text-rendering:geometricPrecision; image-rendering:optimizeQuality; fill-rule:evenodd; clip-rule:evenodd"
viewBox="0 0 5510.22 2638.53"
 xmlns:xlink="http://www.w3.org/1999/xlink"
 xmlns:xodm="http://www.corel.com/coreldraw/odm/2003">
 <defs>
  <style type="text/css">
   <![CDATA[
    .fil0 {fill:#E6E7E8}
    .fil1 {fill:#7C67FF}
    .fil2 {fill:white;fill-rule:nonzero}
   ]]>
  </style>
 </defs>
 <g id="Layer_x0020_1">
  <metadata id="CorelCorpID_0Corel-Layer"/>
  <path class="fil0" d="M5510.22 1403l-124.96 197.41 -5385.26 1038.11c0,-397.36 0,-794.72 0,-1192.08l124.96 -408.33 5385.26 364.89z"/>
  <polygon class="fil1" points="124.96,1038.11 5510.22,0 5510.22,1403 124.96,2441.11 "/>
  <path class="fil2" d="M1317.51 1707.82c0,42.88 -4.2,79.91 -12.59,111.12 -8.4,31.21 -23.2,60.22 -44.39,87.02 -21.2,26.81 -50.99,49.28 -89.38,67.4 -38.39,18.12 -85.97,32.65 -142.76,43.6l-458.27 88.34 -237.53 45.79 0 -903 599.83 -115.63c56.78,-10.95 104.97,-15.52 144.56,-13.72 39.59,1.8 71.18,10.51 94.77,26.11 23.59,15.6 40.59,35.91 50.98,60.92 10.4,25.01 15.6,56.38 15.6,94.11 0,81.47 -19.19,143.91 -57.58,187.32 16.8,1.91 32.59,6.8 47.39,14.67 14.79,7.87 29.39,19.63 43.79,35.29 14.4,15.66 25.59,38.16 33.59,67.49 8,29.33 12,63.72 12,103.17zm-704.21 -263.01l0 86.18 315.52 -60.82c11.19,-2.16 20.59,-8.26 28.19,-18.3 7.6,-10.04 11.4,-21.06 11.4,-33.07 0,-12.01 -3.8,-21.35 -11.4,-28.03 -7.6,-6.68 -17,-8.95 -28.19,-6.79l-315.52 60.82zm410.29 323.53c12,-2.31 21.99,-8.52 29.99,-18.64 8,-10.12 12,-21.39 12,-33.83 0,-12.43 -4,-22.17 -12,-29.2 -8,-7.04 -17.99,-9.4 -29.99,-7.09l-410.29 79.09 0 88.76 410.29 -79.09zm338.55 -718.71l929.74 -179.22 0 250.83 -650.22 125.34 0 79.75 609.43 -117.48 0 240.55 -609.43 117.48 0 81.04 650.22 -125.34 0 250.83 -929.74 179.22 0 -903zm983.97 -189.68l929.74 -179.22 0 250.83 -650.22 125.34 0 79.75 609.43 -117.48 0 240.55 -609.43 117.48 0 81.04 650.22 -125.34 0 250.83 -929.74 179.22 0 -903zm987.56 -190.37l619.03 -119.33c16,-3.08 31.19,-5.58 45.59,-7.5 14.4,-1.92 34.59,-3.02 60.58,-3.32 25.99,-0.29 49.58,1.59 70.78,5.65 21.2,4.06 43.79,12.14 67.78,24.24 23.99,12.09 44.19,27.93 60.58,47.49 16.39,19.56 29.99,45.89 40.79,78.96 10.8,33.08 16.2,71.91 16.2,116.51 0,142.35 -51.59,253.91 -154.76,334.69l172.75 232.97 -322.71 60.92 -143.96 -184.49 -253.13 48.79 0 213.53 -279.52 53.88 0 -903zm592.64 311.53c69.58,-13.42 104.37,-48.42 104.37,-105.02 0,-51.45 -36.39,-70.16 -109.17,-56.14l-308.31 59.43 0 162.08 313.11 -60.36zm1376.26 -691.07l0 290.71 -544.65 467.73 544.65 -104.99 0 249.55 -938.14 180.84 -1.2 0.23 -14.4 2.77 0 -288.14 554.25 -470.87 -554.25 106.84 0 -250.83 953.73 -183.85z"/>
 </g>
</svg>
