<?xml version="1.0" encoding="UTF-8"?>
<!DOCTYPE svg PUBLIC "-//W3C//DTD SVG 1.1//EN" "http://www.w3.org/Graphics/SVG/1.1/DTD/svg11.dtd">
<!-- Creator: CorelDRAW 2021.5 -->
<svg xmlns="http://www.w3.org/2000/svg" xml:space="preserve" width="1.09517in" height="1.14807in" version="1.1" style="shape-rendering:geometricPrecision; text-rendering:geometricPrecision; image-rendering:optimizeQuality; fill-rule:evenodd; clip-rule:evenodd"
viewBox="0 0 201.7 211.45"
 xmlns:xlink="http://www.w3.org/1999/xlink"
 xmlns:xodm="http://www.corel.com/coreldraw/odm/2003">
 <defs>
  <style type="text/css">
   <![CDATA[
    .fil0 {fill:white;fill-rule:nonzero}
   ]]>
  </style>
 </defs>
 <g id="Layer_x0020_1">
  <metadata id="CorelCorpID_0Corel-Layer"/>
  <path class="fil0" d="M199.08 143.44c-1.72,6.39 -4.75,12.33 -9.09,17.82 -4.34,5.49 -10.44,10.09 -18.3,13.8 -7.86,3.71 -17.6,6.69 -29.23,8.93l-93.83 18.09 -48.63 9.38 0 -184.89 122.81 -23.67c11.63,-2.24 21.49,-3.18 29.6,-2.81 8.11,0.37 14.57,2.15 19.4,5.35 4.83,3.19 8.31,7.35 10.44,12.47 2.13,5.12 3.19,11.54 3.19,19.27 0,16.68 -3.93,29.46 -11.79,38.35 3.44,0.39 6.67,1.39 9.7,3 3.03,1.61 6.02,4.02 8.97,7.23 2.95,3.21 5.24,7.81 6.88,13.82 3.44,12.62 3.27,31.28 -0.12,43.87zm-141.6 -76.6l0 17.65 64.6 -12.45c2.29,-0.44 4.22,-1.69 5.77,-3.75 1.56,-2.05 2.33,-4.31 2.33,-6.77 0,-2.46 -0.78,-4.37 -2.33,-5.74 -1.56,-1.37 -3.48,-1.83 -5.77,-1.39l-64.6 12.45zm84.01 66.24c2.46,-0.47 4.5,-1.75 6.14,-3.82 1.64,-2.07 2.46,-4.38 2.46,-6.93 0,-2.55 -0.82,-4.54 -2.46,-5.98 -1.64,-1.44 -3.68,-1.92 -6.14,-1.45l-84.01 16.19 0 18.17 84.01 -16.19z"/>
 </g>
</svg>
